<svg width="412" height="412" viewBox="0 0 412 412" fill="none" xmlns="http://www.w3.org/2000/svg">
<rect width="412" height="412" fill="none"/>
<path d="M103.102 142.869C103.102 134.242 106.529 125.968 112.629 119.868L144.969 87.5274C151.07 81.4271 159.343 78 167.971 78H302.138C305.829 78 308.785 81.0667 308.716 84.7572C308.621 89.7938 308.574 96.1073 308.574 103.698C308.574 111.479 308.522 117.969 308.419 123.169C308.35 126.652 305.503 129.413 302.02 129.435L257.612 129.72H187.676C169.711 129.72 155.147 144.284 155.147 162.249V173.634C155.147 177.227 158.06 180.14 161.653 180.14H251.107C254.7 180.14 257.612 183.052 257.612 186.645V225.355C257.612 228.948 254.7 231.86 251.107 231.86H187.676C169.711 231.86 155.147 246.424 155.147 264.389V334H109.607C106.014 334 103.102 331.087 103.102 327.494V245.009C103.102 236.382 106.529 228.108 112.629 222.008L143.391 191.246C147.489 187.147 144.587 180.14 138.791 180.14H109.607C106.014 180.14 103.102 177.227 103.102 173.634V142.869Z" fill="#00A0A3"/>
<rect x="257.396" y="282.379" width="51.5036" height="51.5036" rx="6.50572" fill="#00A0A3"/>
</svg>
